<?xml version="1.0" standalone="no"?>
<!DOCTYPE svg PUBLIC "-//W3C//DTD SVG 20010904//EN"
 "http://www.w3.org/TR/2001/REC-SVG-20010904/DTD/svg10.dtd">
<svg version="1.0" xmlns="http://www.w3.org/2000/svg"
 width="700.000000pt" height="700.000000pt" viewBox="0 0 700.000000 700.000000"
 preserveAspectRatio="xMidYMid meet">
<metadata>
Created by potrace 1.14, written by Peter Selinger 2001-2017
</metadata>
<g transform="translate(0.000000,700.000000) scale(0.100000,-0.100000)"
fill="#000000" stroke="none">
<path d="M2217 6525 c-1 -2 -33 -5 -72 -8 -209 -19 -427 -97 -616 -223 -99
-66 -251 -219 -320 -324 -158 -237 -232 -469 -233 -730 -1 -201 18 -310 89
-495 72 -187 217 -393 351 -496 59 -45 58 -55 -7 -57 -91 -4 -138 -55 -133
-143 6 -101 96 -316 258 -614 84 -154 145 -293 151 -342 2 -21 7 -69 10 -108
3 -38 8 -86 10 -105 2 -19 6 -75 9 -123 30 -495 86 -621 343 -776 56 -33 104
-61 107 -61 12 0 134 -76 159 -99 36 -32 66 -79 203 -310 137 -232 176 -276
297 -335 128 -62 334 -124 507 -151 25 -4 52 -9 60 -10 31 -5 137 -15 215 -20
44 -3 91 -8 105 -10 45 -10 199 -15 530 -20 179 -2 354 -6 390 -9 96 -8 281
-27 310 -31 14 -2 52 -7 85 -10 33 -4 71 -8 85 -10 14 -2 50 -6 80 -10 30 -3
71 -8 91 -11 20 -3 59 -7 85 -9 27 -3 65 -7 84 -10 19 -3 62 -7 95 -10 33 -3
80 -8 105 -10 54 -6 151 -13 280 -20 272 -16 350 -23 454 -46 49 -11 90 -18
93 -16 5 6 -98 54 -166 77 -32 11 -100 22 -152 25 -107 6 -160 11 -274 26
-114 15 -140 18 -235 34 -47 8 -103 17 -125 20 -85 13 -152 24 -210 35 -27 5
-68 12 -90 15 -22 3 -47 7 -55 10 -8 2 -37 6 -65 10 -27 3 -88 12 -135 20
-210 35 -434 54 -725 60 -110 3 -218 7 -240 9 -22 2 -76 7 -120 11 -44 3 -91
8 -105 10 -14 2 -47 6 -75 10 -80 10 -306 44 -360 55 -27 6 -61 12 -74 15
-106 20 -249 92 -316 158 -41 42 -258 341 -300 415 -38 66 -187 260 -225 292
-22 19 -135 159 -181 225 -68 97 -283 454 -334 555 -20 40 -68 145 -107 234
-71 163 -162 350 -205 419 -57 91 -113 207 -118 243 -15 103 -18 121 -31 147
-21 41 -26 33 -20 -30 5 -57 4 -56 -30 45 -67 200 -44 228 125 145 114 -55
174 -123 315 -359 139 -232 186 -304 311 -474 358 -489 421 -573 633 -829 85
-103 104 -141 92 -178 -6 -16 -37 -53 -71 -82 -33 -29 -58 -55 -55 -58 7 -7
95 34 153 73 89 59 95 58 294 -44 204 -105 253 -123 336 -124 70 0 127 25 163
74 32 43 14 53 -49 29 -48 -18 -56 -19 -108 -5 -72 19 -229 100 -351 181 -285
191 -644 551 -683 685 -9 33 -43 233 -54 317 -3 24 -8 57 -10 75 -13 71 -12
68 -30 241 -2 22 -7 65 -10 95 -5 48 -2 61 22 101 34 58 73 103 100 117 18 10
21 6 31 -36 6 -26 14 -94 18 -150 3 -57 11 -127 18 -155 18 -81 12 -94 -52
-125 -72 -34 -69 -31 -52 -43 15 -10 96 -7 135 5 17 5 30 -11 87 -116 37 -68
99 -188 138 -267 106 -215 144 -269 228 -325 39 -26 151 -85 249 -132 176 -85
337 -182 401 -243 29 -29 43 -48 25 -38 -5 3 -46 8 -93 11 -96 7 -134 -4 -84
-25 195 -82 229 -109 227 -178 -2 -79 -83 -177 -212 -256 l-65 -40 40 -3 c21
-2 55 1 75 7 50 15 143 77 216 145 l62 57 53 -27 c81 -41 223 -141 264 -186
35 -39 36 -42 19 -55 -24 -16 -102 -19 -212 -7 -49 5 -57 -8 -15 -24 112 -44
232 -51 279 -16 63 47 28 142 -79 215 -147 100 -182 144 -294 364 -69 137
-182 318 -214 345 -3 3 -48 61 -100 128 -130 173 -221 274 -466 522 -307 311
-352 359 -389 415 -91 140 -151 323 -111 338 12 5 17 -3 21 -31 21 -124 64
-200 151 -266 104 -79 192 -98 271 -58 54 28 80 55 108 114 43 92 14 201 -83
312 -29 33 -52 63 -52 68 0 14 48 -15 143 -85 131 -96 182 -148 370 -372 42
-49 73 -85 191 -220 80 -91 210 -221 265 -265 24 -19 49 -39 55 -45 33 -29
298 -195 311 -195 2 0 84 -44 182 -98 98 -54 214 -118 258 -142 257 -139 549
-342 671 -467 64 -65 109 -127 163 -228 94 -172 129 -212 118 -133 -4 24 -9
58 -13 75 l-6 33 38 -36 c76 -72 113 -88 379 -169 128 -39 195 -52 195 -38 0
4 -46 32 -103 60 -214 110 -354 187 -404 222 -99 69 -212 172 -262 239 -136
183 -426 392 -898 643 -43 23 -87 47 -98 54 -11 6 -69 38 -130 70 -328 174
-415 241 -640 490 -54 61 -119 133 -144 161 -25 28 -66 75 -91 104 -97 117
-176 206 -205 233 -67 62 -195 158 -243 182 -28 14 -53 29 -56 33 -3 5 22 37
55 72 172 186 262 344 319 560 101 386 33 782 -190 1104 -202 292 -547 503
-885 542 -59 6 -193 12 -198 9z m279 -203 c368 -86 643 -303 804 -636 68 -143
92 -247 95 -421 3 -152 -3 -220 -31 -334 -28 -115 -39 -125 -142 -130 -48 -2
-117 12 -134 28 -3 3 -9 46 -12 96 -10 141 -66 239 -164 287 -69 33 -178 32
-252 -3 -71 -33 -152 -98 -191 -152 -60 -84 -52 -81 -117 -48 -173 88 -380
248 -583 450 -200 201 -348 394 -365 479 -6 28 -1 37 47 85 57 56 178 144 269
194 72 40 227 98 315 116 102 22 341 16 461 -11z m-1019 -862 c235 -294 577
-545 834 -611 l46 -12 -5 -93 c-10 -190 59 -322 196 -374 59 -22 98 -25 157
-9 109 28 197 97 286 223 28 40 41 51 60 49 30 -2 153 -25 157 -29 10 -8 -77
-121 -138 -178 -262 -246 -487 -341 -805 -339 -482 4 -888 284 -1068 738 -62
156 -82 269 -80 450 2 173 43 322 124 450 l30 48 69 -114 c38 -63 99 -152 137
-199z m1419 -385 c49 -37 75 -99 75 -177 0 -62 -1 -72 -17 -133 -24 -98 -117
-220 -199 -260 -57 -28 -163 -28 -202 1 -126 94 -102 360 48 514 67 69 117 91
197 86 49 -3 70 -10 98 -31z m100 -1000 c79 -60 137 -148 148 -224 5 -35 -13
-91 -37 -115 -68 -68 -215 -44 -311 51 -44 44 -62 82 -70 149 l-7 49 22 -40
c53 -98 158 -203 225 -225 48 -16 52 -7 11 24 -69 53 -172 229 -165 285 4 35
60 71 111 71 28 0 51 -8 73 -25z m-1267 -27 c25 -13 41 -29 41 -40 0 -26 -11
-22 -53 17 -54 51 -51 57 12 23z m362 -109 c46 -11 60 -40 49 -100 -5 -25 -11
-67 -15 -95 -3 -27 -7 -58 -9 -69 -2 -11 -8 -49 -12 -85 -4 -36 -9 -68 -10
-72 -1 -5 -2 -14 -3 -20 -1 -12 -40 30 -41 44 0 13 -150 260 -181 300 -21 26
-33 54 -37 83 -8 72 1 76 120 47 57 -14 119 -29 139 -33z m123 -408 c3 -52 15
-133 26 -179 30 -126 22 -135 -21 -23 -24 64 -33 118 -32 183 1 49 12 123 18
117 1 -2 6 -46 9 -98z m510 3 c6 -6 68 -71 138 -145 70 -74 205 -214 301 -311
247 -251 397 -420 397 -448 0 -5 -37 7 -82 27 -46 19 -140 54 -210 77 -184 61
-221 93 -303 256 -21 41 -66 125 -100 185 -87 154 -135 249 -161 324 -22 63
-22 104 -1 65 6 -11 15 -24 21 -30z m-872 -786 c32 -60 159 -259 333 -523 148
-222 187 -285 179 -285 -2 0 -21 11 -42 24 -21 13 -70 40 -110 60 -234 118
-326 219 -358 396 -16 85 -24 148 -29 215 -3 44 -8 103 -11 130 -6 57 1 54 38
-17z m636 -1014 c19 -15 71 -77 117 -138 46 -61 115 -153 154 -205 39 -51 71
-97 71 -102 0 -4 -14 -3 -31 3 -43 15 -125 99 -178 183 -24 39 -74 115 -110
169 -36 55 -67 104 -69 108 -7 15 11 8 46 -18z"/>
<path d="M1995 6256 c-198 -46 -451 -191 -501 -287 -25 -49 6 -46 98 9 46 27
106 61 133 74 49 25 205 81 256 92 111 24 294 25 432 1 51 -9 108 -18 127 -21
19 -3 38 -8 42 -10 4 -2 9 0 12 5 10 16 -67 61 -166 97 -126 45 -328 64 -433
40z"/>
<path d="M1320 4852 c0 -12 77 -140 112 -185 33 -44 159 -172 216 -220 56 -48
193 -135 267 -172 146 -71 335 -115 348 -82 9 23 -9 33 -109 61 -174 49 -318
121 -469 234 -77 58 -260 241 -315 315 -42 56 -50 64 -50 49z"/>
<path d="M2683 5002 c-44 -22 -73 -53 -98 -102 -53 -104 -53 -221 1 -302 26
-41 61 -63 112 -71 45 -7 50 9 7 23 -75 25 -117 96 -117 195 1 100 61 204 128
221 42 11 93 -3 130 -35 19 -17 39 -31 44 -31 48 0 -30 92 -92 109 -51 13 -78
12 -115 -7z"/>
<path d="M3062 3797 c-37 -38 -40 -47 -12 -40 20 5 60 48 60 64 0 17 -16 9
-48 -24z"/>
<path d="M3380 3534 c-87 -68 -190 -177 -190 -200 0 -28 18 -35 51 -18 42 21
209 237 191 248 -4 2 -28 -11 -52 -30z"/>
<path d="M3485 3481 c-31 -13 -112 -88 -118 -110 -2 -10 -1 -25 4 -32 6 -11
14 -8 36 11 41 37 79 80 97 112 18 29 15 32 -19 19z"/>
<path d="M3440 3326 c-85 -60 -107 -82 -112 -111 -6 -40 36 -29 93 23 63 57
127 142 107 142 -7 0 -47 -25 -88 -54z"/>
</g>
</svg>
